<mxfile host="app.diagrams.net" agent="Mozilla/5.0 (Windows NT 10.0; Win64; x64) AppleWebKit/537.36 (KHTML, like Gecko) Chrome/128.0.0.0 Safari/537.36" version="24.7.14">
  <diagram name="Страница-1" id="S0mMQqyAMBiGDCo-rot-">
    <mxGraphModel dx="1105" dy="635" grid="1" gridSize="10" guides="1" tooltips="1" connect="1" arrows="1" fold="1" page="1" pageScale="1" pageWidth="827" pageHeight="1169" math="0" shadow="0">
      <root>
        <mxCell id="0" />
        <mxCell id="1" parent="0" />
        <mxCell id="WpeUTH4BJ5jOMlnelxDK-50" style="edgeStyle=orthogonalEdgeStyle;rounded=0;orthogonalLoop=1;jettySize=auto;html=1;" edge="1" parent="1" source="WpeUTH4BJ5jOMlnelxDK-46" target="WpeUTH4BJ5jOMlnelxDK-48">
          <mxGeometry relative="1" as="geometry" />
        </mxCell>
        <mxCell id="WpeUTH4BJ5jOMlnelxDK-46" value="start" style="rounded=1;whiteSpace=wrap;html=1;" vertex="1" parent="1">
          <mxGeometry x="354" y="50" width="120" height="60" as="geometry" />
        </mxCell>
        <mxCell id="WpeUTH4BJ5jOMlnelxDK-53" style="edgeStyle=orthogonalEdgeStyle;rounded=0;orthogonalLoop=1;jettySize=auto;html=1;entryX=0.5;entryY=0;entryDx=0;entryDy=0;" edge="1" parent="1" source="WpeUTH4BJ5jOMlnelxDK-48" target="WpeUTH4BJ5jOMlnelxDK-52">
          <mxGeometry relative="1" as="geometry" />
        </mxCell>
        <mxCell id="WpeUTH4BJ5jOMlnelxDK-48" value="Input Name&lt;div&gt;Input Height&lt;/div&gt;" style="shape=parallelogram;perimeter=parallelogramPerimeter;whiteSpace=wrap;html=1;fixedSize=1;" vertex="1" parent="1">
          <mxGeometry x="353" y="180" width="120" height="60" as="geometry" />
        </mxCell>
        <mxCell id="WpeUTH4BJ5jOMlnelxDK-51" value="3x" style="text;html=1;align=center;verticalAlign=middle;whiteSpace=wrap;rounded=0;" vertex="1" parent="1">
          <mxGeometry x="450" y="195" width="60" height="30" as="geometry" />
        </mxCell>
        <mxCell id="WpeUTH4BJ5jOMlnelxDK-55" style="edgeStyle=orthogonalEdgeStyle;rounded=0;orthogonalLoop=1;jettySize=auto;html=1;" edge="1" parent="1" source="WpeUTH4BJ5jOMlnelxDK-52" target="WpeUTH4BJ5jOMlnelxDK-54">
          <mxGeometry relative="1" as="geometry" />
        </mxCell>
        <mxCell id="WpeUTH4BJ5jOMlnelxDK-52" value="Find the tallest player with max()" style="rhombus;whiteSpace=wrap;html=1;" vertex="1" parent="1">
          <mxGeometry x="345" y="300" width="136" height="150" as="geometry" />
        </mxCell>
        <mxCell id="WpeUTH4BJ5jOMlnelxDK-58" style="edgeStyle=orthogonalEdgeStyle;rounded=0;orthogonalLoop=1;jettySize=auto;html=1;" edge="1" parent="1" source="WpeUTH4BJ5jOMlnelxDK-54" target="WpeUTH4BJ5jOMlnelxDK-56">
          <mxGeometry relative="1" as="geometry" />
        </mxCell>
        <mxCell id="WpeUTH4BJ5jOMlnelxDK-54" value="Output the tallest player&amp;nbsp;" style="shape=parallelogram;perimeter=parallelogramPerimeter;whiteSpace=wrap;html=1;fixedSize=1;" vertex="1" parent="1">
          <mxGeometry x="353" y="490" width="120" height="60" as="geometry" />
        </mxCell>
        <mxCell id="WpeUTH4BJ5jOMlnelxDK-56" value="End" style="rounded=1;whiteSpace=wrap;html=1;" vertex="1" parent="1">
          <mxGeometry x="354" y="620" width="120" height="60" as="geometry" />
        </mxCell>
      </root>
    </mxGraphModel>
  </diagram>
</mxfile>
